# xmcd
#
# Track frame offsets:
#	150
#	19557
#	36798
#	52930
#	75802
#	97962
#	115598
#	136968
#	160087
#	183357
#	198618
#	226766
#	251448
#
# Disc length: 3578 seconds
#
# Revision: 0
# Processed by: cddbd v1.5.2PL0 Copyright (c) Steve Scherf et al.
# Submitted via: EasyCDDAExtractor 16.0.9.1
#
DISCID=8c0df80d
DTITLE=Robert Cray - Black Heart White Hand
DYEAR=1987
DGENRE=Blues
TTITLE0=Phone Booth
TTITLE1=Bad Influence
TTITLE2=More Then I Could Stand
TTITLE3=T-Bone Shuffle (T-Bone Walker)
TTITLE4=False Accusations
TTITLE5=I Guess I Showed Her
TTITLE6=Foul Play
TTITLE7=Right Next Door
TTITLE8=Playing In The Dirt
TTITLE9=Too Many Cooks
TTITLE10=Smokin' Gun
TTITLE11=The Crawl (With The Fabulous Thunderbirds)
TTITLE12=Bonus Track
EXTD=
EXTT0=
EXTT1=
EXTT2=
EXTT3=
EXTT4=
EXTT5=
EXTT6=
EXTT7=
EXTT8=
EXTT9=
EXTT10=
EXTT11=
EXTT12=
PLAYORDER=
